<svg width="16" height="16" viewBox="0 0 16 16" fill="none" xmlns="http://www.w3.org/2000/svg">
<path d="M4.86397 12.9921C4.79997 12.9921 4.73597 12.9601 4.67197 12.9281C4.54397 12.8321 4.51197 12.7041 4.54397 12.5761L5.79197 8.73606L2.52797 6.33606C2.39997 6.24006 2.36797 6.11206 2.39997 5.98406C2.43197 5.85606 2.55997 5.76006 2.71997 5.76006H6.78397L7.99997 1.88806C8.03197 1.76006 8.15997 1.66406 8.31997 1.66406C8.47997 1.66406 8.57597 1.76006 8.63997 1.88806L9.88797 5.76006H13.952C14.08 5.76006 14.208 5.82406 14.272 5.95206C14.336 6.08006 14.272 6.24006 14.144 6.30406L10.88 8.67206L12.128 12.5121C12.16 12.6401 12.128 12.8001 12 12.8641C11.872 12.9281 11.744 12.9601 11.616 12.8641L8.31997 10.5601L5.05597 12.9281C4.99197 12.9601 4.92797 12.9921 4.86397 12.9921ZM8.31997 9.82406C8.38397 9.82406 8.44797 9.85606 8.51197 9.88806L11.168 11.8401L10.144 8.70406C10.112 8.57606 10.144 8.41606 10.272 8.35206L12.928 6.40006H9.63197C9.50397 6.40006 9.37597 6.30406 9.31197 6.17606L8.31997 3.04006L7.29597 6.17606C7.26397 6.30406 7.13597 6.40006 6.97597 6.40006H3.67997L6.33597 8.35206C6.46397 8.44806 6.49597 8.57606 6.46397 8.70406L5.47197 11.8401L8.12797 9.88806C8.19197 9.85606 8.25597 9.82406 8.31997 9.82406Z" fill="#1A89DB"/>
</svg>
